<?xml version="1.0" encoding="utf-8"?>
<svg viewBox="0 0 500 500" xmlns="http://www.w3.org/2000/svg">
  <g>
    <title>BG0</title>
    <path style="fill: rgb(68, 68, 68);" d="M 237.587 235.935 C 237.587 235.935 190.485 259.257 180.317 269.349 C 166.732 278.046 145.184 316.714 144.774 326.313 C 143.478 356.617 142.642 354.492 142.419 375.765 C 144.595 374.975 149.167 352.313 161.164 350.369 C 164.938 354.422 165.4 361.178 169.609 372.54 C 175.264 360.878 174.274 357.751 188.895 350.103 C 197.589 350.697 204.31 354.9 217.416 376.452 C 217.962 369.639 219.849 359.51 229.913 354.938 C 244 356.151 247.093 362.758 270.761 388.656 C 273.522 367.6 279.051 373.052 282.361 351.289 C 284.604 336.541 290.71 329.455 301.406 314.272 C 302.625 300.542 301.669 283.601 298.702 273.518 C 295.286 261.91 296.336 257.369 286.197 246.19 C 273.082 253.647 237.587 235.935 237.587 235.935 Z">
      <title>BGCape</title>
    </path>
    <path style="stroke-width: 0px; fill: rgb(72, 72, 72);" d="M 266.694 85.388 C 253.624 87.492 250.293 84.978 244.307 89.109 C 227.148 100.948 221.37 117.987 217.15 132.509 C 213.182 152.934 210.593 160.226 209.772 177.06 C 218.088 168.2 253.214 172.29 259.632 172.501 C 283.64 171.191 298.395 172.364 325.117 187.901 C 329.112 183.493 330.165 153.896 331.501 120.928 C 325.301 103.482 318.305 95.266 291.093 87.719 C 285.698 86.223 277.008 82.831 266.694 85.388 Z">
      <title>BGUpperHead</title>
    </path>
    <path style="stroke-width: 0px; fill: rgb(72, 72, 72);" d="M 265.244 199.582 C 265.274 199.571 229.447 193.306 207.328 197.412 C 207.237 197.275 209.052 208.607 211.6 212.461 C 216.847 220.772 227.238 227.971 236.301 234.651 C 245.974 241.781 256.032 244.147 269.132 245.744 C 277.768 246.797 286.091 245.972 294.651 243.141 C 301.81 240.773 305.979 235.41 310.233 226.694 C 312.126 222.816 313.957 218.598 315.908 214.718 C 313.238 213.631 286.473 205.101 265.244 199.582 Z">
      <title>BGLowerHead</title>
    </path>
  </g>
  <g>
    <title>Face</title>
    <path style="fill: rgb(255, 255, 255);" d="M 251.882 112.898 C 239.607 120.604 241.644 117.535 236.037 128.075 C 234.462 138.856 236.303 154.368 258.609 164.913 C 259.04 159.828 255.198 142.049 254.809 139.551 C 254.809 139.551 250.026 123.462 251.882 112.898 Z">
      <title>Eye</title>
    </path>
    <path style="fill: rgb(255, 255, 255);" d="M 277.151 122.01 C 280.657 122.185 296.653 119.469 296.14 127.72 C 293.279 130.467 286.385 132.933 282.972 139.021 C 282.972 139.021 274.044 157.003 268.747 163.742 C 265.873 156.629 266.163 150.697 269.74 138.593 C 269.599 138.744 274.421 124.924 277.151 122.01 Z">
      <title>Eye</title>
    </path>
    <path style="stroke: rgb(0, 0, 0); fill: rgb(248, 226, 192);" d="M 244.127 171.009 C 233.931 167.806 225.312 165.542 209.888 175.338 L 207.393 197.468 C 206.049 197.316 243.69 196.967 261.608 198.987 C 274.413 200.14 316.838 214.751 316.176 214.691 L 326.188 189.612 C 312.635 183.747 299.033 172.863 284.273 172.241 C 271.217 171.691 248.395 172.153 244.127 171.009 Z">
      <title>Face</title>
    </path>
  </g>
  <g>
    <title>BG1</title>
    <path style="fill: rgb(127, 127, 127);" d="M 239.242 235.52 C 235.228 236.653 227.807 242.328 226.68 243.576 C 223.225 247.402 218.561 258.404 215.894 266.669 C 212.088 278.466 212.143 298.617 212.129 300.046 C 213.462 306.84 224.069 319.694 228.814 321.753 C 234.055 325.558 250.387 328.197 257.913 326.838 C 271.082 324.594 279.054 308.21 280.45 306.569 C 281.148 305.749 288.376 276.141 288.422 274.471 C 288.27 273.529 284.988 247.351 284.554 246.339 C 283.643 246.169 264.171 243.56 261.45 243.265 C 259.223 242.713 240.486 236.2 239.242 235.52 Z">
      <title>BGBody</title>
    </path>
  </g>
  <g>
    <title>FG</title>
    <path stroke="rgb(255,0,0)" opacity="0.8509803921568627" d="M 264.154 7.93 C 264.898 7.837 265.919 8.162 266.066 8.452 C 266.179 8.674 265.947 8.969 265.545 9.321 C 264.716 10.044 261.649 10.567 260.155 12.277 C 258.297 14.402 257.495 17.049 255.983 22.012 C 253.341 30.68 248.767 51.558 246.942 63.737 C 245.694 72.064 244.919 83.119 244.822 88.171 C 245.237 87.95 245.671 87.748 246.129 87.566 C 249.709 86.14 257.408 86.285 258.994 86.175 C 259.486 86.141 259.206 86.236 259.689 86.175 C 261.221 85.98 267.623 83.994 271.859 83.741 C 276.298 83.476 281.422 83.703 285.767 84.784 C 289.981 85.833 293.674 88.653 297.589 90 C 300.322 90.939 303.092 91.15 305.789 91.813 C 306.734 88.891 307.969 85.488 309.278 82.076 C 314.082 69.552 330.913 31.278 333.443 29.398 C 334.029 28.963 334.425 29.525 334.313 30.615 C 333.83 35.292 315.401 69.996 310.669 82.423 C 309.373 85.828 308.486 89.373 307.787 92.41 C 308.098 92.523 308.408 92.646 308.716 92.781 C 312.498 94.439 318.373 98.921 319.668 99.909 C 320.079 100.222 319.866 100.01 320.19 100.431 C 321.264 101.827 326.316 108.819 328.361 112.774 C 330.163 116.259 331.547 120.032 332.186 122.858 C 332.677 125.028 332.587 125.401 332.533 128.421 C 332.425 134.581 330.148 156.061 330.1 161.453 C 330.079 163.73 330.558 163.217 330.447 165.278 C 330.222 169.459 328.243 182.109 326.97 187.531 C 326.831 188.124 326.704 188.639 326.584 189.1 C 326.613 189.151 326.634 189.2 326.647 189.245 C 326.713 189.475 326.594 189.703 326.375 189.869 C 325.835 191.78 325.34 192.878 324.189 195.876 C 322.661 199.852 319.873 207.293 316.951 214.333 C 317.249 214.812 316.915 215.229 316.695 215.434 C 316.615 215.509 316.529 215.564 316.423 215.599 C 314.399 220.411 312.344 224.922 310.628 227.865 C 307.592 233.069 304.548 236.137 301.762 238.817 C 299.571 240.924 297.883 242.089 295.503 243.338 C 292.945 244.679 290.055 245.868 286.81 246.467 C 283.187 247.136 278.251 246.977 274.641 246.815 C 271.527 246.674 270.132 246.734 266.296 245.772 C 259.989 244.189 247.225 240.372 238.827 236.036 C 230.628 231.802 221.697 225.883 216.4 220.215 C 211.997 215.504 209.308 210.436 207.707 205.264 C 206.993 202.957 206.682 200.581 206.571 198.18 C 206.198 198.191 205.927 198.154 205.777 198.049 C 205.394 197.78 205.712 197.025 206.299 196.658 C 206.367 196.616 206.442 196.575 206.524 196.536 C 206.495 194.347 206.593 192.145 206.664 189.965 C 206.833 184.778 207.765 178.463 208.75 174.318 C 209.507 171.138 210.765 170.294 211.532 166.669 C 212.737 160.976 212.76 148.332 213.966 141.634 C 214.892 136.491 215.602 134.042 217.443 129.116 C 219.86 122.649 224.386 112.002 228.222 105.82 C 231.362 100.76 234.905 96.996 238.132 93.824 C 240.005 91.983 241.549 90.323 243.391 89.046 C 243.387 88.053 243.431 86.873 243.465 85.642 C 243.602 80.737 244.166 72.169 245.551 63.389 C 247.322 52.169 251.149 32.457 254.244 23.055 C 256.301 16.808 258.635 11.941 260.677 9.669 C 261.871 8.34 263.179 8.052 264.154 7.93 Z M 244.856 90.51 C 244.916 91.119 245.294 91.016 245.204 91.206 C 245.087 91.451 244.132 92.034 243.813 91.727 C 243.666 91.586 243.566 91.301 243.501 90.907 C 240.531 92.97 237.679 95.751 235.524 97.997 C 232.756 100.881 231.528 103.01 229.265 107.037 C 226.127 112.621 221.255 122.977 218.834 129.638 C 216.851 135.091 216.01 138.551 215.009 144.242 C 213.795 151.144 212.849 163.883 212.575 168.581 C 212.436 170.972 212.908 172.617 212.575 173.101 C 212.418 173.33 212.085 173.242 211.88 173.101 C 211.597 172.906 211.453 171.42 211.184 171.71 C 210.432 172.522 208.307 185.963 208.055 191.877 C 207.991 193.376 207.936 194.776 207.928 196.119 C 209.599 195.794 212.131 195.67 214.991 195.615 C 221.61 195.488 240.465 197.479 244.199 197.354 C 245.415 197.313 244.702 196.989 245.937 197.006 C 249.863 197.059 266.448 198.61 277.578 201.178 C 289.167 203.853 311.184 210.832 315.994 213.574 C 319.03 206.635 321.992 198.985 323.841 192.92 C 324.14 191.938 324.431 190.917 324.711 189.868 C 323.053 189.034 320.268 186.315 317.085 184.551 C 311.922 181.69 302.958 176.827 296.223 174.815 C 290.133 172.996 284.07 172.575 278.49 172.381 C 273.34 172.203 268.822 173.418 263.886 173.424 C 258.858 173.431 254.154 173.137 248.587 172.381 C 242.241 171.52 234.119 167.382 227.725 168.209 C 221.657 168.994 213.062 176.203 211.035 176.554 C 210.422 176.66 210.224 176.435 210.166 176.206 C 210.093 175.919 210.25 175.432 211.035 174.815 C 213.089 173.2 221.344 167.58 227.377 166.818 C 233.882 165.996 241.621 170.12 248.935 170.99 C 256.337 171.871 265.493 172.147 271.536 172.034 C 276.093 171.948 278.654 170.784 282.662 170.99 C 287.155 171.222 291.955 172.025 297.266 173.772 C 303.592 175.854 312.933 180.613 318.128 183.508 C 320.683 184.932 323.56 186.592 325.236 187.834 C 327.491 178.756 328.99 168.389 329.056 164.756 C 329.088 163.028 328.437 163.791 328.361 161.975 C 328.156 157.078 331.248 134.69 331.143 127.899 C 331.086 124.292 331.003 123.807 330.1 120.945 C 328.806 116.846 326.337 109.734 322.798 105.299 C 319.193 100.78 313.129 96.465 308.542 94.172 C 308.19 93.996 307.841 93.84 307.494 93.7 C 306.72 97.125 306.166 99.698 305.453 100.33 C 304.945 100.781 304.233 100.512 304.062 99.809 C 303.825 98.828 304.391 96.311 305.404 93.03 C 302.75 92.367 300.175 92.33 297.415 91.39 C 293.267 89.978 288.839 86.854 284.55 85.827 C 280.494 84.856 276.382 84.783 272.38 85.132 C 268.385 85.48 264.621 87.332 260.558 87.913 C 256.398 88.508 251.737 87.082 247.693 88.609 C 246.747 88.966 245.785 89.458 244.826 90.041 C 244.834 90.226 244.843 90.383 244.856 90.51 Z M 209.098 205.09 C 210.575 209.787 212.935 214.547 217.095 218.998 C 222.234 224.496 231.293 230.485 239.348 234.645 C 247.503 238.856 259.381 242.368 265.774 244.033 C 269.919 245.112 271.669 245.315 275.162 245.424 C 279.197 245.549 284.448 245.644 288.723 244.381 C 293.028 243.108 297.492 240.571 300.892 237.774 C 304.167 235.081 306.015 232.953 308.89 228.039 C 310.687 224.966 312.905 220.489 315.136 215.512 C 315.026 215.489 314.909 215.463 314.783 215.434 C 311.27 214.626 297.256 208.44 289.748 206.046 C 283.344 204.004 278.112 202.691 272.363 201.526 C 266.756 200.39 262.805 199.772 255.673 199.092 C 245.665 198.138 225 196.897 216.382 197.006 C 213.08 197.048 209.969 197.718 207.953 198.028 C 208.037 200.415 208.341 202.681 209.098 205.09 Z M 254.055 110.569 C 254.461 110.637 255.397 111.575 255.272 111.959 C 255.121 112.424 253.1 111.968 252.491 113.002 C 251.45 114.768 251.653 118.919 252.143 124.303 C 252.97 133.381 260.733 161.889 259.792 165.332 C 259.534 166.278 259.12 166.134 258.228 165.854 C 255.84 165.104 246.755 158.009 243.103 153.858 C 240.037 150.373 238.116 146.884 236.844 143.079 C 235.595 139.343 235.211 134.638 235.453 131.257 C 235.656 128.432 236.528 125.915 237.539 123.955 C 238.408 122.273 239.207 121.444 240.843 119.957 C 243.175 117.836 250.332 114.076 251.1 112.655 C 251.406 112.088 250.613 111.727 250.752 111.438 C 250.894 111.143 251.58 110.935 251.969 110.916 C 252.331 110.899 252.673 111.312 253.012 111.264 C 253.37 111.214 253.708 110.51 254.055 110.569 Z M 250.404 114.393 C 249.015 113.748 244.462 118.625 242.407 120.652 C 240.721 122.315 239.508 123.687 238.582 125.52 C 237.639 127.388 236.999 129.293 236.844 131.779 C 236.651 134.87 237.076 139.428 238.235 142.905 C 239.394 146.382 241.026 149.507 243.798 152.641 C 247.118 156.394 255.754 165.099 257.706 163.42 C 260.234 161.246 252.14 133.216 251.795 130.388 C 251.722 129.788 251.843 130.09 251.795 129.692 C 251.688 128.796 250.987 126.592 250.752 124.477 C 250.448 121.744 251.79 115.037 250.404 114.393 Z M 276.818 121.049 C 278.388 120.526 287.316 121.322 290.726 122.092 C 293.134 122.635 295.07 123.222 296.115 124.352 C 296.995 125.302 297.765 126.689 297.159 128.003 C 296.178 130.127 290.45 131.036 286.727 135.131 C 281.09 141.331 270.298 164.169 268.125 165.555 C 267.602 165.888 267.488 165.514 267.256 165.033 C 266.715 163.914 266.497 160.046 266.56 156.688 C 266.643 152.328 266.828 146.083 268.299 140.694 C 269.879 134.907 274.473 124.907 276.122 123.135 C 276.706 122.507 277.191 122.663 277.513 122.787 C 277.794 122.895 278.105 123.371 278.035 123.656 C 277.947 124.011 277.235 123.816 276.644 124.699 C 275.09 127.022 270.73 136.556 269.342 142.78 C 267.964 148.96 267.878 160.836 268.299 161.904 C 268.384 162.119 268.45 162.052 268.647 161.904 C 269.408 161.332 272.7 156.8 274.558 153.559 C 276.674 149.867 278.159 144.375 280.469 140.694 C 282.565 137.354 284.97 134.528 287.597 132.175 C 290.094 129.939 295.261 128.163 295.768 126.786 C 296.05 126.018 295.627 125.447 294.551 124.873 C 292.059 123.545 277.324 122.858 276.296 121.918 C 275.975 121.624 276.268 121.232 276.818 121.049 Z M 247.222 186.019 C 251.286 185.115 257.674 185.865 261.478 187.062 C 264.615 188.049 268.686 190.845 268.954 191.756 C 269.085 192.204 268.391 192.679 267.737 192.626 C 266.469 192.522 263.964 189.349 261.13 188.453 C 257.594 187.335 251.484 186.615 247.57 187.41 C 244.072 188.12 239.699 192.342 238.529 192.278 C 238.066 192.253 237.797 191.814 238.008 191.409 C 238.549 190.37 243.606 186.824 247.222 186.019 Z M 237.379 235.031 C 241.173 237.078 239.091 235.478 238.944 235.552 C 238.725 235.661 238.902 235.996 238.422 236.421 C 237.099 237.594 229.99 239.982 226.756 243.839 C 222.41 249.022 218.218 261.144 215.978 268.352 C 214.159 274.202 213.71 278.951 213.196 283.999 C 212.709 288.785 212.293 293.977 212.848 297.907 C 213.31 301.178 213.918 303.221 215.63 306.252 C 217.848 310.179 222.323 316.08 226.235 319.291 C 229.755 322.18 233.406 323.972 237.709 325.202 C 242.364 326.532 249.127 326.733 253.356 326.593 C 256.603 326.485 259.035 326.002 261.353 325.202 C 263.427 324.486 264.79 324.043 266.742 322.246 C 269.644 319.576 275.139 310.342 276.478 308.86 C 276.89 308.404 276.85 308.704 277.174 308.338 C 277.887 307.532 279.635 305.328 280.651 303.122 C 281.917 300.372 282.887 296.529 283.78 292.691 C 284.002 291.736 284.227 290.725 284.445 289.682 C 280.737 285.571 277.543 282.168 277.418 281.555 C 277.342 281.183 278.141 281.623 278.809 282.077 C 280.055 282.923 282.513 285.121 284.852 287.666 C 285.451 284.578 285.964 281.33 286.214 278.435 C 286.579 274.196 286.616 270.833 286.214 266.266 C 285.737 260.843 282.624 249.722 283.085 247.837 C 283.228 247.25 283.643 246.994 283.954 247.316 C 284.956 248.355 287.037 260.268 287.605 265.918 C 288.101 270.859 288.248 274.175 287.605 279.479 C 287.263 282.299 286.827 285.667 286.187 289.173 C 289.588 293.141 293.907 298.987 297.585 304.678 C 298.551 306.173 299.595 307.833 300.658 309.57 C 300.856 307.901 300.881 306.31 301.028 304.534 C 301.321 300.986 301.581 298.618 301.028 293.755 C 300.167 286.177 296.583 268.894 294.422 261.766 C 293.073 257.318 291.828 254.303 290.423 252.552 C 289.525 251.433 285.849 248.344 285.321 248.43 C 284.973 248.487 285.091 249.366 284.8 249.473 C 284.479 249.591 283.536 249.34 283.409 248.952 C 283.244 248.446 283.856 246.456 284.626 246.344 C 285.706 246.187 290.976 251.026 292.335 252.726 C 293.706 254.439 294.113 255.802 295.117 258.984 C 296.857 264.5 299.826 277.353 301.028 285.41 C 302.083 292.479 302.738 299.279 302.419 304.881 C 302.281 307.309 302.122 309.362 301.746 311.365 C 304.941 316.684 308.13 322.426 309.755 326.235 C 311.338 329.947 312.573 334.383 312.189 335.102 C 312.003 335.448 311.281 335.177 310.798 334.58 C 309.734 333.267 309.273 328.695 307.321 324.497 C 305.898 321.436 303.771 317.327 301.365 313.077 C 301.034 314.356 300.591 315.652 299.985 317.051 C 297.819 322.047 291.559 328.518 289.206 332.698 C 287.546 335.647 287.29 336.469 286.077 340 C 284.096 345.766 281.276 358.437 278.775 366.077 C 276.623 372.652 273.022 379.309 272.169 383.463 C 271.629 386.089 272.038 388.139 272.169 389.374 C 272.243 390.074 272.672 390.445 272.516 390.765 C 272.365 391.074 271.917 391.601 271.299 391.286 C 269.794 390.519 264.568 381.791 262.013 378.252 C 262.824 384.364 263.337 389.63 263.475 391.02 C 263.532 391.603 263.395 391.13 263.475 391.715 C 263.832 394.358 268.387 414.009 269.386 421.27 C 270.056 426.148 270.147 428.761 270.081 432.397 C 270.017 435.944 268.953 441.122 269.038 442.828 C 269.074 443.56 269.551 443.782 269.386 444.045 C 269.204 444.334 268.253 444.42 267.821 444.393 C 267.473 444.37 267.421 443.669 266.952 444.045 C 264.935 445.663 253.608 468.093 250.957 476.208 C 249.203 481.58 250.269 487.831 249.219 488.899 C 248.738 489.388 247.777 489.1 247.48 488.377 C 246.835 486.805 247.715 481.217 249.566 475.86 C 252.408 467.639 263.27 451.815 266.256 442.828 C 268.419 436.319 268.948 432.832 268.69 426.486 C 268.37 418.601 263.899 406.671 262.779 398.669 C 261.866 392.146 262.497 387.52 261.736 381.632 C 261.537 380.09 261.325 378.586 261.09 377.08 C 261.074 377.063 261.058 377.046 261.042 377.03 C 260.338 376.307 260.319 376.778 259.651 376.161 C 258.217 374.834 253.508 368.744 252.523 367.642 C 252.19 367.27 252.257 367.398 252.002 367.121 C 251.528 366.607 250.876 365.53 249.742 364.513 C 248.044 362.99 245.232 360.316 242.092 358.95 C 238.472 357.374 232.023 355.846 228.879 356.168 C 226.719 356.389 225.632 357.223 224.185 358.602 C 222.379 360.324 220.391 363.499 219.317 366.425 C 218.192 369.494 218.259 376.173 217.753 376.683 C 217.577 376.86 217.584 376.583 217.231 376.161 C 216.764 375.603 215.412 373.75 213.818 371.57 C 213.527 372.95 213.334 373.92 213.272 374.356 C 213.179 375.011 213.314 374.635 213.272 375.051 C 213.17 376.058 212.479 377.952 212.229 381.31 C 211.734 387.941 211.398 406.083 211.881 416.08 C 212.281 424.359 216.769 434.012 214.315 437.638 C 212.369 440.514 203.837 439.397 202.319 439.551 C 201.836 439.6 202.114 439.524 201.624 439.551 C 200.065 439.634 195.016 439.432 189.106 440.594 C 179.118 442.557 147.6 454.101 144.252 453.459 C 143.421 453.299 143.266 452.649 143.905 452.068 C 146.447 449.756 175 442.089 187.368 439.551 C 197.237 437.525 209.372 440.873 212.924 436.595 C 216.112 432.756 210.897 423.659 210.49 417.124 C 210.082 410.562 210.369 403.767 210.49 397.304 C 210.608 391.026 210.107 387.336 211.186 378.876 C 211.478 376.59 211.957 373.469 212.56 369.851 C 210.193 366.627 207.671 363.244 206.8 362.427 C 206.24 361.901 206.209 362.317 205.757 361.905 C 204.847 361.075 202.446 357.339 201.758 356.516 C 201.474 356.175 201.573 356.271 201.237 355.994 C 200.448 355.344 198.158 353.181 196.195 352.343 C 194.087 351.443 191.475 350.552 188.893 350.952 C 185.904 351.416 181.806 353.519 179.331 355.82 C 176.912 358.069 175.04 363.386 174.116 364.513 C 173.77 364.935 173.7 364.607 173.42 365.034 C 172.728 366.091 171.232 372.356 170.465 372.858 C 170.135 373.073 169.939 372.885 169.596 372.336 C 168.569 370.697 166.722 361.226 165.075 357.385 C 163.823 354.464 162.711 351.287 161.077 350.605 C 159.72 350.038 158.123 350.764 156.383 352.169 C 153.502 354.497 148.369 362.68 146.299 366.425 C 144.887 368.98 144.327 370.55 143.865 372.684 C 143.411 374.782 143.983 378.267 143.518 379.116 C 143.303 379.509 142.87 379.676 142.648 379.464 C 142.212 379.048 142.093 377.04 142.127 374.422 C 142.191 369.454 144.601 352.777 144.561 349.388 C 144.547 348.214 144.254 348.445 144.213 347.649 C 144.15 346.423 144.521 344.78 144.561 342.434 C 144.621 338.86 143.742 331.78 144.213 327.482 C 144.609 323.868 145.323 321.619 146.647 318.094 C 148.291 313.72 150.21 309.247 153.949 303.143 C 159.315 294.382 171.004 277.317 178.114 269.937 C 183.099 264.763 186.562 263.235 191.675 259.854 C 197.418 256.055 206.402 250.645 211.146 248.379 C 214.177 246.932 220.963 243.995 222.813 243.79 C 224.163 243.641 226.076 244.066 226.117 244.312 C 226.154 244.54 224.645 244.814 223.509 245.181 C 221.865 245.713 215.137 248.053 212.189 249.422 C 207.356 251.667 197.926 257.26 191.675 261.592 C 185.76 265.691 180.766 268.946 175.507 274.631 C 169.298 281.342 162.201 292.549 157.426 300.361 C 153.412 306.928 150 313.52 148.038 318.442 C 146.6 322.048 146.089 323.399 145.604 327.482 C 144.88 333.567 145.988 345.58 145.604 352.865 C 145.287 358.883 143.531 367.579 143.865 368.511 C 143.938 368.714 144.027 368.683 144.213 368.511 C 145.011 367.777 149.431 358.228 150.472 356.863 C 150.822 356.404 150.783 356.71 151.167 356.342 C 152.128 355.419 154.853 350.958 156.904 349.909 C 158.605 349.04 160.618 348.265 162.294 349.561 C 165.134 351.76 166.78 367.917 169.769 368.338 C 172.576 368.732 176.141 357.169 179.505 354.082 C 182.1 351.7 185.017 350.546 187.502 349.909 C 189.601 349.371 191.522 349.557 193.413 349.909 C 195.288 350.258 197.977 351.437 198.803 351.995 C 199.19 352.257 199.062 352.449 199.324 352.691 C 199.682 353.02 200.538 353.346 200.889 353.734 C 201.179 354.054 201.11 354.413 201.411 354.777 C 201.817 355.269 202.914 355.884 203.323 356.342 C 203.609 356.663 203.613 356.979 203.845 357.211 C 204.076 357.443 204.208 357.225 204.714 357.733 C 205.773 358.795 209.548 364.94 212.66 369.25 C 215.65 351.436 221.47 322.363 222.834 320.635 C 223.295 320.05 223.708 321.18 223.703 322.896 C 223.687 327.978 216.28 360.036 213.946 370.969 C 215.164 372.525 216.173 373.566 216.71 373.553 C 218.052 373.522 216.89 368.605 217.927 366.077 C 219.119 363.169 221.5 359.086 224.011 357.211 C 226.282 355.516 229.148 354.796 232.009 354.777 C 235.137 354.756 238.987 356.106 242.092 357.559 C 245.186 359.007 249.501 362.481 250.611 363.47 C 251.023 363.837 250.886 363.82 251.132 364.165 C 251.556 364.758 252.471 366.419 253.045 366.947 C 253.42 367.291 253.801 367.214 254.088 367.468 C 254.384 367.73 254.45 368.155 254.783 368.511 C 255.202 368.96 255.586 368.896 256.522 369.902 C 257.321 370.762 258.973 373.08 260.882 375.788 C 260.188 371.605 259.282 367.332 257.911 362.16 C 255.373 352.587 246.306 330.25 246.785 328.259 C 246.827 328.084 246.922 327.988 247.05 327.965 C 242.633 327.761 238.247 327.256 234.232 325.549 C 229.944 323.727 225.695 320.382 222.236 317.031 C 218.808 313.709 215.314 308.997 213.544 305.556 C 212.173 302.892 211.814 300.84 211.457 298.255 C 211.08 295.526 211.12 293.418 211.457 289.562 C 211.574 288.231 211.729 286.64 211.923 284.891 C 208.993 287.506 192.146 299.055 186.034 304.187 C 181.66 307.861 179.169 310.353 176.472 313.402 C 174.047 316.144 171.645 321.01 170.387 321.573 C 169.831 321.821 169.101 321.622 169.17 321.051 C 169.38 319.318 176.922 310.471 182.905 304.883 C 190.276 297.998 208.214 284.329 211.417 283.325 C 211.711 283.233 211.936 283.235 212.108 283.289 C 212.778 277.651 213.826 270.786 215.282 265.57 C 217.238 258.565 220.748 250.233 223.279 246.099 C 224.899 243.454 225.985 242.65 227.973 241.057 C 230.294 239.199 235.881 234.223 237.379 235.031 Z M 293.76 300.853 C 291.756 297.992 288.715 294.455 285.798 291.188 C 284.933 295.432 283.745 299.761 282.042 303.47 C 278.591 310.986 270.641 320.766 266.916 324.159 C 264.912 325.984 264.335 325.982 262.048 326.593 C 258.649 327.5 252.157 328.183 247.445 327.983 C 247.371 327.98 247.296 327.977 247.222 327.973 C 247.493 328.036 247.846 328.318 248.176 328.781 C 250.277 331.729 256.738 351.739 259.302 362.508 C 260.321 366.787 261.191 372.207 261.87 377.192 C 265.458 382.287 269.556 388.068 270.604 388.157 C 271.543 388.237 270.264 385.357 270.778 383.115 C 271.595 379.551 274.561 374.422 276.689 368.164 C 279.537 359.785 281.989 345.395 286.077 336.175 C 289.72 327.959 296.984 320.768 299.29 314.965 C 299.814 313.647 300.15 312.464 300.375 311.349 C 298.245 307.671 295.949 303.979 293.76 300.853 Z" style="fill-opacity: 1; fill-rule: nonzero; stroke: rgb(0, 0, 0); stroke-dasharray: none; stroke-dashoffset: 0px; stroke-linecap: round; stroke-linejoin: miter; stroke-miterlimit: 4; stroke-opacity: 1; paint-order: fill; opacity: 1; mix-blend-mode: normal; isolation: auto; vector-effect: non-scaling-stroke;">
      <title>Frontground</title>
    </path>
    <path d="M 244.272 247.152 C 244.272 247.152 244.229 259.319 235.644 256.894 C 235.389 256.822 234.815 252.017 234.396 248.55 C 234.262 247.44 233.737 244.285 233.395 245.349 C 228.537 253.467 225.48 261.916 225.687 267.553 C 225.893 273.158 226.788 280.993 227.815 280.254 C 232.316 277.018 233.037 271.277 235.768 267.178 C 236.337 266.324 236.868 269.67 237.024 270.684 C 237.311 272.557 237.714 273.329 238.098 275.205 C 238.373 276.55 239.43 280.77 239.843 279.461 C 240.467 277.484 241.994 274.666 242.516 273.124 C 242.862 272.103 244.012 267.187 244.361 267.652 C 246.457 270.438 246.516 272.267 247.584 275.586 C 248.865 279.567 248.64 280.28 249.164 279.426 C 250.66 276.987 250.953 274.275 251.795 271.528 C 252.023 270.786 252.111 268.955 252.851 269.186 C 254.055 269.561 254.355 271.213 255.014 272.288 C 257.196 275.844 259.29 279.454 261.368 283.072 C 261.981 284.138 262.515 285.248 263.084 286.338 C 263.345 286.838 263.617 288.352 263.859 287.843 C 265.925 283.485 267.393 278.772 268.821 275.644 C 269.81 273.477 271.736 264.742 271.951 250.953 C 270.408 249.948 269.466 254.411 268.087 255.63 C 265.004 258.356 265.716 257.921 262.386 259.701 C 261.256 260.305 257.82 261.637 257.191 260.521 C 255.588 257.674 255.008 256.191 255.619 252.887 C 255.886 251.442 256.195 246.531 255.116 247.53 C 251.094 251.254 252.106 252.437 248.104 252.84 C 245.498 253.103 244.272 247.152 244.272 247.152 Z" style="stroke: black;">
      <title>Symbol</title>
    </path>
  </g>
</svg>